<svg width="165" height="165" viewBox="0 0 165 165" fill="none" xmlns="http://www.w3.org/2000/svg">
<path d="M6.60098 0H0.000976562V6.60001H6.60098V0Z" fill="#1A1B1C"/>
<path d="M6.60001 6.60001H0V13.2H6.60001V6.60001Z" fill="#1A1B1C"/>
<path d="M6.60001 13.2H0V19.8H6.60001V13.2Z" fill="#1A1B1C"/>
<path d="M6.60001 19.8H0V26.4H6.60001V19.8Z" fill="#1A1B1C"/>
<path d="M6.60001 26.4H0V33H6.60001V26.4Z" fill="#1A1B1C"/>
<path d="M6.60001 33H0V39.6H6.60001V33Z" fill="#1A1B1C"/>
<path d="M6.60001 39.6001H0V46.2001H6.60001V39.6001Z" fill="#1A1B1C"/>
<path d="M6.60001 52.8001H0V59.4001H6.60001V52.8001Z" fill="#1A1B1C"/>
<path d="M6.60001 59.4001H0V66.0001H6.60001V59.4001Z" fill="#1A1B1C"/>
<path d="M6.60001 79.2001H0V85.8001H6.60001V79.2001Z" fill="#1A1B1C"/>
<path d="M6.60001 118.8H0V125.4H6.60001V118.8Z" fill="#1A1B1C"/>
<path d="M6.60001 125.4H0V132H6.60001V125.4Z" fill="#1A1B1C"/>
<path d="M6.60001 132H0V138.6H6.60001V132Z" fill="#1A1B1C"/>
<path d="M6.60001 138.6H0V145.2H6.60001V138.6Z" fill="#1A1B1C"/>
<path d="M6.60001 145.2H0V151.8H6.60001V145.2Z" fill="#1A1B1C"/>
<path d="M6.60001 151.8H0V158.4H6.60001V151.8Z" fill="#1A1B1C"/>
<path d="M6.60001 158.4H0V165H6.60001V158.4Z" fill="#1A1B1C"/>
<path d="M13.1991 7.62939e-06H6.59912V6.60002H13.1991V7.62939e-06Z" fill="#1A1B1C"/>
<path d="M13.1991 39.6001H6.59912V46.2001H13.1991V39.6001Z" fill="#1A1B1C"/>
<path d="M13.1991 52.8001H6.59912V59.4001H13.1991V52.8001Z" fill="#1A1B1C"/>
<path d="M13.1991 85.8001H6.59912V92.4001H13.1991V85.8001Z" fill="#1A1B1C"/>
<path d="M13.1991 99.0001H6.59912V105.6H13.1991V99.0001Z" fill="#1A1B1C"/>
<path d="M13.1991 105.6H6.59912V112.2H13.1991V105.6Z" fill="#1A1B1C"/>
<path d="M13.1991 118.8H6.59912V125.4H13.1991V118.8Z" fill="#1A1B1C"/>
<path d="M13.1991 158.4H6.59912V165H13.1991V158.4Z" fill="#1A1B1C"/>
<path d="M19.7997 7.62939e-06H13.1997V6.60002H19.7997V7.62939e-06Z" fill="#1A1B1C"/>
<path d="M19.7997 13.2H13.1997V19.8H19.7997V13.2Z" fill="#1A1B1C"/>
<path d="M19.7997 19.8H13.1997V26.4H19.7997V19.8Z" fill="#1A1B1C"/>
<path d="M19.7997 26.4H13.1997V33H19.7997V26.4Z" fill="#1A1B1C"/>
<path d="M19.7997 39.6001H13.1997V46.2001H19.7997V39.6001Z" fill="#1A1B1C"/>
<path d="M19.7997 79.2001H13.1997V85.8001H19.7997V79.2001Z" fill="#1A1B1C"/>
<path d="M19.7997 85.8001H13.1997V92.4001H19.7997V85.8001Z" fill="#1A1B1C"/>
<path d="M19.7997 99.0001H13.1997V105.6H19.7997V99.0001Z" fill="#1A1B1C"/>
<path d="M19.7997 118.8H13.1997V125.4H19.7997V118.8Z" fill="#1A1B1C"/>
<path d="M19.7997 132H13.1997V138.6H19.7997V132Z" fill="#1A1B1C"/>
<path d="M19.7997 138.6H13.1997V145.2H19.7997V138.6Z" fill="#1A1B1C"/>
<path d="M19.7997 145.2H13.1997V151.8H19.7997V145.2Z" fill="#1A1B1C"/>
<path d="M19.7997 158.4H13.1997V165H19.7997V158.4Z" fill="#1A1B1C"/>
<path d="M26.3988 7.62939e-06H19.7988V6.60002H26.3988V7.62939e-06Z" fill="#1A1B1C"/>
<path d="M26.3988 13.2H19.7988V19.8H26.3988V13.2Z" fill="#1A1B1C"/>
<path d="M26.3988 19.8H19.7988V26.4H26.3988V19.8Z" fill="#1A1B1C"/>
<path d="M26.3988 26.4H19.7988V33H26.3988V26.4Z" fill="#1A1B1C"/>
<path d="M26.3988 39.6001H19.7988V46.2001H26.3988V39.6001Z" fill="#1A1B1C"/>
<path d="M26.3988 52.8001H19.7988V59.4001H26.3988V52.8001Z" fill="#1A1B1C"/>
<path d="M26.3988 79.2001H19.7988V85.8001H26.3988V79.2001Z" fill="#1A1B1C"/>
<path d="M26.3988 85.8001H19.7988V92.4001H26.3988V85.8001Z" fill="#1A1B1C"/>
<path d="M26.3988 92.4001H19.7988V99.0001H26.3988V92.4001Z" fill="#1A1B1C"/>
<path d="M26.3988 99.0001H19.7988V105.6H26.3988V99.0001Z" fill="#1A1B1C"/>
<path d="M26.3988 118.8H19.7988V125.4H26.3988V118.8Z" fill="#1A1B1C"/>
<path d="M26.3988 132H19.7988V138.6H26.3988V132Z" fill="#1A1B1C"/>
<path d="M26.3988 138.6H19.7988V145.2H26.3988V138.6Z" fill="#1A1B1C"/>
<path d="M26.3988 145.2H19.7988V151.8H26.3988V145.2Z" fill="#1A1B1C"/>
<path d="M26.3988 158.4H19.7988V165H26.3988V158.4Z" fill="#1A1B1C"/>
<path d="M33.0009 7.62939e-06H26.4009V6.60002H33.0009V7.62939e-06Z" fill="#1A1B1C"/>
<path d="M33.0009 13.2H26.4009V19.8H33.0009V13.2Z" fill="#1A1B1C"/>
<path d="M33.0009 19.8H26.4009V26.4H33.0009V19.8Z" fill="#1A1B1C"/>
<path d="M33.0009 26.4H26.4009V33H33.0009V26.4Z" fill="#1A1B1C"/>
<path d="M33.0009 39.6001H26.4009V46.2001H33.0009V39.6001Z" fill="#1A1B1C"/>
<path d="M33.0009 52.8001H26.4009V59.4001H33.0009V52.8001Z" fill="#1A1B1C"/>
<path d="M33.0009 59.4001H26.4009V66.0001H33.0009V59.4001Z" fill="#1A1B1C"/>
<path d="M33.0009 66.0001H26.4009V72.6001H33.0009V66.0001Z" fill="#1A1B1C"/>
<path d="M33.0009 79.2001H26.4009V85.8001H33.0009V79.2001Z" fill="#1A1B1C"/>
<path d="M33.0009 85.8001H26.4009V92.4001H33.0009V85.8001Z" fill="#1A1B1C"/>
<path d="M33.0009 105.6H26.4009V112.2H33.0009V105.6Z" fill="#1A1B1C"/>
<path d="M33.0009 118.8H26.4009V125.4H33.0009V118.8Z" fill="#1A1B1C"/>
<path d="M33.0009 132H26.4009V138.6H33.0009V132Z" fill="#1A1B1C"/>
<path d="M33.0009 138.6H26.4009V145.2H33.0009V138.6Z" fill="#1A1B1C"/>
<path d="M33.0009 145.2H26.4009V151.8H33.0009V145.2Z" fill="#1A1B1C"/>
<path d="M33.0009 158.4H26.4009V165H33.0009V158.4Z" fill="#1A1B1C"/>
<path d="M39.5995 7.62939e-06H32.9995V6.60002H39.5995V7.62939e-06Z" fill="#1A1B1C"/>
<path d="M39.5995 39.6001H32.9995V46.2001H39.5995V39.6001Z" fill="#1A1B1C"/>
<path d="M39.5995 79.2001H32.9995V85.8001H39.5995V79.2001Z" fill="#1A1B1C"/>
<path d="M39.5995 85.8001H32.9995V92.4001H39.5995V85.8001Z" fill="#1A1B1C"/>
<path d="M39.5995 92.4001H32.9995V99.0001H39.5995V92.4001Z" fill="#1A1B1C"/>
<path d="M39.5995 99.0001H32.9995V105.6H39.5995V99.0001Z" fill="#1A1B1C"/>
<path d="M39.5995 105.6H32.9995V112.2H39.5995V105.6Z" fill="#1A1B1C"/>
<path d="M39.5995 118.8H32.9995V125.4H39.5995V118.8Z" fill="#1A1B1C"/>
<path d="M39.5995 158.4H32.9995V165H39.5995V158.4Z" fill="#1A1B1C"/>
<path d="M46.1996 7.62939e-06H39.5996V6.60002H46.1996V7.62939e-06Z" fill="#1A1B1C"/>
<path d="M46.1996 6.60001H39.5996V13.2H46.1996V6.60001Z" fill="#1A1B1C"/>
<path d="M46.1996 13.2H39.5996V19.8H46.1996V13.2Z" fill="#1A1B1C"/>
<path d="M46.1996 19.8H39.5996V26.4H46.1996V19.8Z" fill="#1A1B1C"/>
<path d="M46.1996 26.4H39.5996V33H46.1996V26.4Z" fill="#1A1B1C"/>
<path d="M46.1996 33H39.5996V39.6H46.1996V33Z" fill="#1A1B1C"/>
<path d="M46.1996 39.6001H39.5996V46.2001H46.1996V39.6001Z" fill="#1A1B1C"/>
<path d="M46.1996 52.8001H39.5996V59.4001H46.1996V52.8001Z" fill="#1A1B1C"/>
<path d="M46.1996 66.0001H39.5996V72.6001H46.1996V66.0001Z" fill="#1A1B1C"/>
<path d="M46.1996 79.2001H39.5996V85.8001H46.1996V79.2001Z" fill="#1A1B1C"/>
<path d="M46.1996 92.4001H39.5996V99.0001H46.1996V92.4001Z" fill="#1A1B1C"/>
<path d="M46.1996 105.6H39.5996V112.2H46.1996V105.6Z" fill="#1A1B1C"/>
<path d="M46.1996 118.8H39.5996V125.4H46.1996V118.8Z" fill="#1A1B1C"/>
<path d="M46.1996 125.4H39.5996V132H46.1996V125.4Z" fill="#1A1B1C"/>
<path d="M46.1996 132H39.5996V138.6H46.1996V132Z" fill="#1A1B1C"/>
<path d="M46.1996 138.6H39.5996V145.2H46.1996V138.6Z" fill="#1A1B1C"/>
<path d="M46.1996 145.2H39.5996V151.8H46.1996V145.2Z" fill="#1A1B1C"/>
<path d="M46.1996 151.8H39.5996V158.4H46.1996V151.8Z" fill="#1A1B1C"/>
<path d="M46.1996 158.4H39.5996V165H46.1996V158.4Z" fill="#1A1B1C"/>
<path d="M52.7997 59.4001H46.1997V66.0001H52.7997V59.4001Z" fill="#1A1B1C"/>
<path d="M52.7997 85.8001H46.1997V92.4001H52.7997V85.8001Z" fill="#1A1B1C"/>
<path d="M52.7997 105.6H46.1997V112.2H52.7997V105.6Z" fill="#1A1B1C"/>
<path d="M59.3998 7.62939e-06H52.7998V6.60002H59.3998V7.62939e-06Z" fill="#1A1B1C"/>
<path d="M59.3998 39.6001H52.7998V46.2001H59.3998V39.6001Z" fill="#1A1B1C"/>
<path d="M59.3998 46.2001H52.7998V52.8001H59.3998V46.2001Z" fill="#1A1B1C"/>
<path d="M59.3998 59.4001H52.7998V66.0001H59.3998V59.4001Z" fill="#1A1B1C"/>
<path d="M59.3998 66.0001H52.7998V72.6001H59.3998V66.0001Z" fill="#1A1B1C"/>
<path d="M59.3998 72.6001H52.7998V79.2001H59.3998V72.6001Z" fill="#1A1B1C"/>
<path d="M59.3998 79.2001H52.7998V85.8001H59.3998V79.2001Z" fill="#1A1B1C"/>
<path d="M59.3998 112.2H52.7998V118.8H59.3998V112.2Z" fill="#1A1B1C"/>
<path d="M59.3998 132H52.7998V138.6H59.3998V132Z" fill="#1A1B1C"/>
<path d="M59.3998 138.6H52.7998V145.2H59.3998V138.6Z" fill="#1A1B1C"/>
<path d="M59.3998 151.8H52.7998V158.4H59.3998V151.8Z" fill="#1A1B1C"/>
<path d="M59.3998 158.4H52.7998V165H59.3998V158.4Z" fill="#1A1B1C"/>
<path d="M65.9999 7.62939e-06H59.3999V6.60002H65.9999V7.62939e-06Z" fill="#1A1B1C"/>
<path d="M65.9999 13.2H59.3999V19.8H65.9999V13.2Z" fill="#1A1B1C"/>
<path d="M65.9999 33H59.3999V39.6H65.9999V33Z" fill="#1A1B1C"/>
<path d="M65.9999 46.2001H59.3999V52.8001H65.9999V46.2001Z" fill="#1A1B1C"/>
<path d="M65.9999 52.8001H59.3999V59.4001H65.9999V52.8001Z" fill="#1A1B1C"/>
<path d="M65.9999 66.0001H59.3999V72.6001H65.9999V66.0001Z" fill="#1A1B1C"/>
<path d="M65.9999 79.2001H59.3999V85.8001H65.9999V79.2001Z" fill="#1A1B1C"/>
<path d="M65.9999 85.8001H59.3999V92.4001H65.9999V85.8001Z" fill="#1A1B1C"/>
<path d="M65.9999 92.4001H59.3999V99.0001H65.9999V92.4001Z" fill="#1A1B1C"/>
<path d="M65.9999 99.0001H59.3999V105.6H65.9999V99.0001Z" fill="#1A1B1C"/>
<path d="M65.9999 105.6H59.3999V112.2H65.9999V105.6Z" fill="#1A1B1C"/>
<path d="M65.9999 112.2H59.3999V118.8H65.9999V112.2Z" fill="#1A1B1C"/>
<path d="M65.9999 138.6H59.3999V145.2H65.9999V138.6Z" fill="#1A1B1C"/>
<path d="M65.9999 145.2H59.3999V151.8H65.9999V145.2Z" fill="#1A1B1C"/>
<path d="M65.9999 151.8H59.3999V158.4H65.9999V151.8Z" fill="#1A1B1C"/>
<path d="M65.9999 158.4H59.3999V165H65.9999V158.4Z" fill="#1A1B1C"/>
<path d="M72.6 7.62939e-06H66V6.60002H72.6V7.62939e-06Z" fill="#1A1B1C"/>
<path d="M72.6 19.8H66V26.4H72.6V19.8Z" fill="#1A1B1C"/>
<path d="M72.6 26.4H66V33H72.6V26.4Z" fill="#1A1B1C"/>
<path d="M72.6 39.6001H66V46.2001H72.6V39.6001Z" fill="#1A1B1C"/>
<path d="M72.6 59.4001H66V66.0001H72.6V59.4001Z" fill="#1A1B1C"/>
<path d="M72.6 79.2001H66V85.8001H72.6V79.2001Z" fill="#1A1B1C"/>
<path d="M72.6 85.8001H66V92.4001H72.6V85.8001Z" fill="#1A1B1C"/>
<path d="M72.6 92.4001H66V99.0001H72.6V92.4001Z" fill="#1A1B1C"/>
<path d="M72.6 105.6H66V112.2H72.6V105.6Z" fill="#1A1B1C"/>
<path d="M72.6 112.2H66V118.8H72.6V112.2Z" fill="#1A1B1C"/>
<path d="M72.6 138.6H66V145.2H72.6V138.6Z" fill="#1A1B1C"/>
<path d="M72.6 151.8H66V158.4H72.6V151.8Z" fill="#1A1B1C"/>
<path d="M72.6 158.4H66V165H72.6V158.4Z" fill="#1A1B1C"/>
<path d="M79.2006 7.62939e-06H72.6006V6.60002H79.2006V7.62939e-06Z" fill="#1A1B1C"/>
<path d="M79.2006 6.60001H72.6006V13.2H79.2006V6.60001Z" fill="#1A1B1C"/>
<path d="M79.2006 13.2H72.6006V19.8H79.2006V13.2Z" fill="#1A1B1C"/>
<path d="M79.2006 19.8H72.6006V26.4H79.2006V19.8Z" fill="#1A1B1C"/>
<path d="M79.2006 26.4H72.6006V33H79.2006V26.4Z" fill="#1A1B1C"/>
<path d="M79.2006 33H72.6006V39.6H79.2006V33Z" fill="#1A1B1C"/>
<path d="M79.2006 99.0001H72.6006V105.6H79.2006V99.0001Z" fill="#1A1B1C"/>
<path d="M79.2006 118.8H72.6006V125.4H79.2006V118.8Z" fill="#1A1B1C"/>
<path d="M79.2006 132H72.6006V138.6H79.2006V132Z" fill="#1A1B1C"/>
<path d="M79.2006 138.6H72.6006V145.2H79.2006V138.6Z" fill="#1A1B1C"/>
<path d="M79.2006 145.2H72.6006V151.8H79.2006V145.2Z" fill="#1A1B1C"/>
<path d="M85.8007 6.60001H79.2007V13.2H85.8007V6.60001Z" fill="#1A1B1C"/>
<path d="M85.8007 26.4H79.2007V33H85.8007V26.4Z" fill="#1A1B1C"/>
<path d="M85.8007 39.6001H79.2007V46.2001H85.8007V39.6001Z" fill="#1A1B1C"/>
<path d="M85.8007 46.2001H79.2007V52.8001H85.8007V46.2001Z" fill="#1A1B1C"/>
<path d="M85.8007 52.8001H79.2007V59.4001H85.8007V52.8001Z" fill="#1A1B1C"/>
<path d="M85.8007 66.0001H79.2007V72.6001H85.8007V66.0001Z" fill="#1A1B1C"/>
<path d="M85.8007 79.2001H79.2007V85.8001H85.8007V79.2001Z" fill="#1A1B1C"/>
<path d="M85.8007 85.8001H79.2007V92.4001H85.8007V85.8001Z" fill="#1A1B1C"/>
<path d="M85.8007 105.6H79.2007V112.2H85.8007V105.6Z" fill="#1A1B1C"/>
<path d="M85.8007 112.2H79.2007V118.8H85.8007V112.2Z" fill="#1A1B1C"/>
<path d="M85.8007 132H79.2007V138.6H85.8007V132Z" fill="#1A1B1C"/>
<path d="M85.8007 158.4H79.2007V165H85.8007V158.4Z" fill="#1A1B1C"/>
<path d="M92.4008 7.62939e-06H85.8008V6.60002H92.4008V7.62939e-06Z" fill="#1A1B1C"/>
<path d="M92.4008 13.2H85.8008V19.8H92.4008V13.2Z" fill="#1A1B1C"/>
<path d="M92.4008 19.8H85.8008V26.4H92.4008V19.8Z" fill="#1A1B1C"/>
<path d="M92.4008 26.4H85.8008V33H92.4008V26.4Z" fill="#1A1B1C"/>
<path d="M92.4008 46.2001H85.8008V52.8001H92.4008V46.2001Z" fill="#1A1B1C"/>
<path d="M92.4008 85.8001H85.8008V92.4001H92.4008V85.8001Z" fill="#1A1B1C"/>
<path d="M92.4008 105.6H85.8008V112.2H92.4008V105.6Z" fill="#1A1B1C"/>
<path d="M92.4008 112.2H85.8008V118.8H92.4008V112.2Z" fill="#1A1B1C"/>
<path d="M92.4008 125.4H85.8008V132H92.4008V125.4Z" fill="#1A1B1C"/>
<path d="M92.4008 145.2H85.8008V151.8H92.4008V145.2Z" fill="#1A1B1C"/>
<path d="M99.0014 7.62939e-06H92.4014V6.60002H99.0014V7.62939e-06Z" fill="#1A1B1C"/>
<path d="M99.0014 6.60001H92.4014V13.2H99.0014V6.60001Z" fill="#1A1B1C"/>
<path d="M99.0014 13.2H92.4014V19.8H99.0014V13.2Z" fill="#1A1B1C"/>
<path d="M99.0014 26.4H92.4014V33H99.0014V26.4Z" fill="#1A1B1C"/>
<path d="M99.0014 39.6001H92.4014V46.2001H99.0014V39.6001Z" fill="#1A1B1C"/>
<path d="M99.0014 52.8001H92.4014V59.4001H99.0014V52.8001Z" fill="#1A1B1C"/>
<path d="M99.0014 59.4001H92.4014V66.0001H99.0014V59.4001Z" fill="#1A1B1C"/>
<path d="M99.0014 72.6001H92.4014V79.2001H99.0014V72.6001Z" fill="#1A1B1C"/>
<path d="M99.0014 99.0001H92.4014V105.6H99.0014V99.0001Z" fill="#1A1B1C"/>
<path d="M99.0014 105.6H92.4014V112.2H99.0014V105.6Z" fill="#1A1B1C"/>
<path d="M99.0014 125.4H92.4014V132H99.0014V125.4Z" fill="#1A1B1C"/>
<path d="M99.0014 132H92.4014V138.6H99.0014V132Z" fill="#1A1B1C"/>
<path d="M99.0014 138.6H92.4014V145.2H99.0014V138.6Z" fill="#1A1B1C"/>
<path d="M99.0014 145.2H92.4014V151.8H99.0014V145.2Z" fill="#1A1B1C"/>
<path d="M99.0014 151.8H92.4014V158.4H99.0014V151.8Z" fill="#1A1B1C"/>
<path d="M105.6 19.8H99V26.4H105.6V19.8Z" fill="#1A1B1C"/>
<path d="M105.6 52.8001H99V59.4001H105.6V52.8001Z" fill="#1A1B1C"/>
<path d="M105.6 59.4001H99V66.0001H105.6V59.4001Z" fill="#1A1B1C"/>
<path d="M105.6 66.0001H99V72.6001H105.6V66.0001Z" fill="#1A1B1C"/>
<path d="M105.6 72.6001H99V79.2001H105.6V72.6001Z" fill="#1A1B1C"/>
<path d="M105.6 79.2001H99V85.8001H105.6V79.2001Z" fill="#1A1B1C"/>
<path d="M105.6 85.8001H99V92.4001H105.6V85.8001Z" fill="#1A1B1C"/>
<path d="M105.6 92.4001H99V99.0001H105.6V92.4001Z" fill="#1A1B1C"/>
<path d="M105.6 105.6H99V112.2H105.6V105.6Z" fill="#1A1B1C"/>
<path d="M105.6 112.2H99V118.8H105.6V112.2Z" fill="#1A1B1C"/>
<path d="M105.6 125.4H99V132H105.6V125.4Z" fill="#1A1B1C"/>
<path d="M105.6 132H99V138.6H105.6V132Z" fill="#1A1B1C"/>
<path d="M105.6 138.6H99V145.2H105.6V138.6Z" fill="#1A1B1C"/>
<path d="M112.201 19.8H105.601V26.4H112.201V19.8Z" fill="#1A1B1C"/>
<path d="M112.201 26.4H105.601V33H112.201V26.4Z" fill="#1A1B1C"/>
<path d="M112.201 39.6001H105.601V46.2001H112.201V39.6001Z" fill="#1A1B1C"/>
<path d="M112.201 52.8001H105.601V59.4001H112.201V52.8001Z" fill="#1A1B1C"/>
<path d="M112.201 79.2001H105.601V85.8001H112.201V79.2001Z" fill="#1A1B1C"/>
<path d="M112.201 85.8001H105.601V92.4001H112.201V85.8001Z" fill="#1A1B1C"/>
<path d="M112.201 92.4001H105.601V99.0001H112.201V92.4001Z" fill="#1A1B1C"/>
<path d="M112.201 105.6H105.601V112.2H112.201V105.6Z" fill="#1A1B1C"/>
<path d="M112.201 112.2H105.601V118.8H112.201V112.2Z" fill="#1A1B1C"/>
<path d="M112.201 118.8H105.601V125.4H112.201V118.8Z" fill="#1A1B1C"/>
<path d="M112.201 125.4H105.601V132H112.201V125.4Z" fill="#1A1B1C"/>
<path d="M112.201 132H105.601V138.6H112.201V132Z" fill="#1A1B1C"/>
<path d="M112.201 138.6H105.601V145.2H112.201V138.6Z" fill="#1A1B1C"/>
<path d="M112.201 158.4H105.601V165H112.201V158.4Z" fill="#1A1B1C"/>
<path d="M118.801 59.4001H112.201V66.0001H118.801V59.4001Z" fill="#1A1B1C"/>
<path d="M118.801 79.2001H112.201V85.8001H118.801V79.2001Z" fill="#1A1B1C"/>
<path d="M118.801 92.4001H112.201V99.0001H118.801V92.4001Z" fill="#1A1B1C"/>
<path d="M118.801 105.6H112.201V112.2H118.801V105.6Z" fill="#1A1B1C"/>
<path d="M118.801 132H112.201V138.6H118.801V132Z" fill="#1A1B1C"/>
<path d="M118.801 138.6H112.201V145.2H118.801V138.6Z" fill="#1A1B1C"/>
<path d="M118.801 145.2H112.201V151.8H118.801V145.2Z" fill="#1A1B1C"/>
<path d="M125.4 7.62939e-06H118.8V6.60002H125.4V7.62939e-06Z" fill="#1A1B1C"/>
<path d="M125.4 6.60001H118.8V13.2H125.4V6.60001Z" fill="#1A1B1C"/>
<path d="M125.4 13.2H118.8V19.8H125.4V13.2Z" fill="#1A1B1C"/>
<path d="M125.4 19.8H118.8V26.4H125.4V19.8Z" fill="#1A1B1C"/>
<path d="M125.4 26.4H118.8V33H125.4V26.4Z" fill="#1A1B1C"/>
<path d="M125.4 33H118.8V39.6H125.4V33Z" fill="#1A1B1C"/>
<path d="M125.4 39.6001H118.8V46.2001H125.4V39.6001Z" fill="#1A1B1C"/>
<path d="M125.4 52.8001H118.8V59.4001H125.4V52.8001Z" fill="#1A1B1C"/>
<path d="M125.4 66.0001H118.8V72.6001H125.4V66.0001Z" fill="#1A1B1C"/>
<path d="M125.4 79.2001H118.8V85.8001H125.4V79.2001Z" fill="#1A1B1C"/>
<path d="M125.4 105.6H118.8V112.2H125.4V105.6Z" fill="#1A1B1C"/>
<path d="M125.4 118.8H118.8V125.4H125.4V118.8Z" fill="#1A1B1C"/>
<path d="M125.4 132H118.8V138.6H125.4V132Z" fill="#1A1B1C"/>
<path d="M125.4 138.6H118.8V145.2H125.4V138.6Z" fill="#1A1B1C"/>
<path d="M125.4 151.8H118.8V158.4H125.4V151.8Z" fill="#1A1B1C"/>
<path d="M132.001 7.62939e-06H125.401V6.60002H132.001V7.62939e-06Z" fill="#1A1B1C"/>
<path d="M132.001 39.6001H125.401V46.2001H132.001V39.6001Z" fill="#1A1B1C"/>
<path d="M132.001 59.4001H125.401V66.0001H132.001V59.4001Z" fill="#1A1B1C"/>
<path d="M132.001 66.0001H125.401V72.6001H132.001V66.0001Z" fill="#1A1B1C"/>
<path d="M132.001 72.6001H125.401V79.2001H132.001V72.6001Z" fill="#1A1B1C"/>
<path d="M132.001 99.0001H125.401V105.6H132.001V99.0001Z" fill="#1A1B1C"/>
<path d="M132.001 105.6H125.401V112.2H132.001V105.6Z" fill="#1A1B1C"/>
<path d="M132.001 132H125.401V138.6H132.001V132Z" fill="#1A1B1C"/>
<path d="M132.001 138.6H125.401V145.2H132.001V138.6Z" fill="#1A1B1C"/>
<path d="M132.001 145.2H125.401V151.8H132.001V145.2Z" fill="#1A1B1C"/>
<path d="M132.001 151.8H125.401V158.4H132.001V151.8Z" fill="#1A1B1C"/>
<path d="M138.6 7.62939e-06H132V6.60002H138.6V7.62939e-06Z" fill="#1A1B1C"/>
<path d="M138.6 13.2H132V19.8H138.6V13.2Z" fill="#1A1B1C"/>
<path d="M138.6 19.8H132V26.4H138.6V19.8Z" fill="#1A1B1C"/>
<path d="M138.6 26.4H132V33H138.6V26.4Z" fill="#1A1B1C"/>
<path d="M138.6 39.6001H132V46.2001H138.6V39.6001Z" fill="#1A1B1C"/>
<path d="M138.6 59.4001H132V66.0001H138.6V59.4001Z" fill="#1A1B1C"/>
<path d="M138.6 85.8001H132V92.4001H138.6V85.8001Z" fill="#1A1B1C"/>
<path d="M138.6 92.4001H132V99.0001H138.6V92.4001Z" fill="#1A1B1C"/>
<path d="M138.6 99.0001H132V105.6H138.6V99.0001Z" fill="#1A1B1C"/>
<path d="M138.6 105.6H132V112.2H138.6V105.6Z" fill="#1A1B1C"/>
<path d="M138.6 112.2H132V118.8H138.6V112.2Z" fill="#1A1B1C"/>
<path d="M138.6 118.8H132V125.4H138.6V118.8Z" fill="#1A1B1C"/>
<path d="M138.6 125.4H132V132H138.6V125.4Z" fill="#1A1B1C"/>
<path d="M138.6 132H132V138.6H138.6V132Z" fill="#1A1B1C"/>
<path d="M138.6 145.2H132V151.8H138.6V145.2Z" fill="#1A1B1C"/>
<path d="M138.6 151.8H132V158.4H138.6V151.8Z" fill="#1A1B1C"/>
<path d="M145.2 7.62939e-06H138.6V6.60002H145.2V7.62939e-06Z" fill="#1A1B1C"/>
<path d="M145.2 13.2H138.6V19.8H145.2V13.2Z" fill="#1A1B1C"/>
<path d="M145.2 19.8H138.6V26.4H145.2V19.8Z" fill="#1A1B1C"/>
<path d="M145.2 26.4H138.6V33H145.2V26.4Z" fill="#1A1B1C"/>
<path d="M145.2 39.6001H138.6V46.2001H145.2V39.6001Z" fill="#1A1B1C"/>
<path d="M145.2 59.4001H138.6V66.0001H145.2V59.4001Z" fill="#1A1B1C"/>
<path d="M145.2 66.0001H138.6V72.6001H145.2V66.0001Z" fill="#1A1B1C"/>
<path d="M145.2 72.6001H138.6V79.2001H145.2V72.6001Z" fill="#1A1B1C"/>
<path d="M145.2 92.4001H138.6V99.0001H145.2V92.4001Z" fill="#1A1B1C"/>
<path d="M145.2 118.8H138.6V125.4H145.2V118.8Z" fill="#1A1B1C"/>
<path d="M145.2 132H138.6V138.6H145.2V132Z" fill="#1A1B1C"/>
<path d="M145.2 138.6H138.6V145.2H145.2V138.6Z" fill="#1A1B1C"/>
<path d="M145.2 158.4H138.6V165H145.2V158.4Z" fill="#1A1B1C"/>
<path d="M151.801 7.62939e-06H145.201V6.60002H151.801V7.62939e-06Z" fill="#1A1B1C"/>
<path d="M151.801 13.2H145.201V19.8H151.801V13.2Z" fill="#1A1B1C"/>
<path d="M151.801 19.8H145.201V26.4H151.801V19.8Z" fill="#1A1B1C"/>
<path d="M151.801 26.4H145.201V33H151.801V26.4Z" fill="#1A1B1C"/>
<path d="M151.801 39.6001H145.201V46.2001H151.801V39.6001Z" fill="#1A1B1C"/>
<path d="M151.801 59.4001H145.201V66.0001H151.801V59.4001Z" fill="#1A1B1C"/>
<path d="M151.801 72.6001H145.201V79.2001H151.801V72.6001Z" fill="#1A1B1C"/>
<path d="M151.801 92.4001H145.201V99.0001H151.801V92.4001Z" fill="#1A1B1C"/>
<path d="M151.801 99.0001H145.201V105.6H151.801V99.0001Z" fill="#1A1B1C"/>
<path d="M151.801 105.6H145.201V112.2H151.801V105.6Z" fill="#1A1B1C"/>
<path d="M151.801 145.2H145.201V151.8H151.801V145.2Z" fill="#1A1B1C"/>
<path d="M151.801 151.8H145.201V158.4H151.801V151.8Z" fill="#1A1B1C"/>
<path d="M158.4 7.62939e-06H151.8V6.60002H158.4V7.62939e-06Z" fill="#1A1B1C"/>
<path d="M158.4 39.6001H151.8V46.2001H158.4V39.6001Z" fill="#1A1B1C"/>
<path d="M158.4 59.4001H151.8V66.0001H158.4V59.4001Z" fill="#1A1B1C"/>
<path d="M158.4 72.6001H151.8V79.2001H158.4V72.6001Z" fill="#1A1B1C"/>
<path d="M158.4 85.8001H151.8V92.4001H158.4V85.8001Z" fill="#1A1B1C"/>
<path d="M158.4 92.4001H151.8V99.0001H158.4V92.4001Z" fill="#1A1B1C"/>
<path d="M158.4 105.6H151.8V112.2H158.4V105.6Z" fill="#1A1B1C"/>
<path d="M158.4 112.2H151.8V118.8H158.4V112.2Z" fill="#1A1B1C"/>
<path d="M158.4 138.6H151.8V145.2H158.4V138.6Z" fill="#1A1B1C"/>
<path d="M158.4 145.2H151.8V151.8H158.4V145.2Z" fill="#1A1B1C"/>
<path d="M158.4 151.8H151.8V158.4H158.4V151.8Z" fill="#1A1B1C"/>
<path d="M165 7.62939e-06H158.4V6.60002H165V7.62939e-06Z" fill="#1A1B1C"/>
<path d="M165 6.60001H158.4V13.2H165V6.60001Z" fill="#1A1B1C"/>
<path d="M165 13.2H158.4V19.8H165V13.2Z" fill="#1A1B1C"/>
<path d="M165 19.8H158.4V26.4H165V19.8Z" fill="#1A1B1C"/>
<path d="M165 26.4H158.4V33H165V26.4Z" fill="#1A1B1C"/>
<path d="M165 33H158.4V39.6H165V33Z" fill="#1A1B1C"/>
<path d="M165 39.6001H158.4V46.2001H165V39.6001Z" fill="#1A1B1C"/>
<path d="M165 52.8001H158.4V59.4001H165V52.8001Z" fill="#1A1B1C"/>
<path d="M165 66.0001H158.4V72.6001H165V66.0001Z" fill="#1A1B1C"/>
<path d="M165 72.6001H158.4V79.2001H165V72.6001Z" fill="#1A1B1C"/>
<path d="M165 79.2001H158.4V85.8001H165V79.2001Z" fill="#1A1B1C"/>
<path d="M165 92.4001H158.4V99.0001H165V92.4001Z" fill="#1A1B1C"/>
<path d="M165 99.0001H158.4V105.6H165V99.0001Z" fill="#1A1B1C"/>
<path d="M165 118.8H158.4V125.4H165V118.8Z" fill="#1A1B1C"/>
<path d="M165 138.6H158.4V145.2H165V138.6Z" fill="#1A1B1C"/>
<path d="M165 145.2H158.4V151.8H165V145.2Z" fill="#1A1B1C"/>
<path d="M165 151.8H158.4V158.4H165V151.8Z" fill="#1A1B1C"/>
<path d="M165 158.4H158.4V165H165V158.4Z" fill="#1A1B1C"/>
</svg>
